<svg width="320" height="128" viewBox="0 0 320 128" fill="none" xmlns="http://www.w3.org/2000/svg">
<path d="M123.83 78.382H117.523V61.9213C117.523 60.0861 117.076 58.6442 116.183 57.5955C115.29 56.5094 114.063 55.9663 112.5 55.9663C110.714 55.9663 109.318 56.5655 108.314 57.764C107.346 58.9625 106.863 60.6105 106.863 62.7079V78.382H100.5V50.8539H106.751V53.2697C108.463 51.2097 110.825 50.1798 113.839 50.1798C117.225 50.1798 119.774 51.3783 121.486 53.7753C123.607 51.3783 126.453 50.1798 130.025 50.1798C133.597 50.1798 136.295 51.2285 138.118 53.3258C139.978 55.3858 140.909 58.4007 140.909 62.3708V78.382H134.546V61.9213C134.546 60.0861 134.099 58.6442 133.206 57.5955C132.313 56.5094 131.086 55.9663 129.523 55.9663C127.737 55.9663 126.341 56.5843 125.337 57.8202C124.332 59.0187 123.83 60.6479 123.83 62.7079V78.382Z" fill="#18181B"/>
<path d="M171.304 64.2809L171.248 66.5281H152.55C152.699 68.588 153.425 70.2172 154.727 71.4157C156.029 72.6142 157.704 73.2135 159.75 73.2135C162.69 73.2135 165.034 71.9213 166.783 69.3371L171.08 73.382C168.178 77.1273 164.401 79 159.75 79C155.62 79 152.309 77.6891 149.816 75.0674C147.285 72.4082 146.02 68.9813 146.02 64.7865C146.02 60.7041 147.174 57.2397 149.481 54.3933C151.825 51.5843 154.932 50.1798 158.801 50.1798C162.932 50.1798 166.039 51.5655 168.122 54.3371C170.243 57.1086 171.304 60.4232 171.304 64.2809ZM158.857 56.0225C157.257 56.0225 155.936 56.5281 154.895 57.5393C153.89 58.5506 153.22 59.8427 152.885 61.4157H164.55C164.513 59.8801 164.011 58.6067 163.043 57.5955C162.076 56.5468 160.681 56.0225 158.857 56.0225Z" fill="#18181B"/>
<path d="M189.488 50.1798C192.539 50.1798 195.088 51.0787 197.134 52.8764V39H203.497V78.382H197.246V75.9101C195.311 77.97 192.725 79 189.488 79C185.618 79 182.418 77.6517 179.888 74.9551C177.395 72.221 176.148 68.7753 176.148 64.618C176.148 60.4607 177.395 57.015 179.888 54.2809C182.381 51.5468 185.581 50.1798 189.488 50.1798ZM195.292 58.3258C193.99 56.6779 192.204 55.8539 189.934 55.8539C187.665 55.8539 185.878 56.6779 184.576 58.3258C183.274 59.9738 182.623 62.0712 182.623 64.618C182.623 67.1648 183.274 69.2622 184.576 70.9101C185.878 72.5581 187.665 73.382 189.934 73.382C192.204 73.382 193.99 72.5581 195.292 70.9101C196.595 69.2622 197.246 67.1648 197.246 64.618C197.246 62.0712 196.595 59.9738 195.292 58.3258Z" fill="#18181B"/>
<path d="M209.944 50.8539H216.307V67.3146C216.307 69.1498 216.753 70.6105 217.646 71.6966C218.539 72.7453 219.804 73.2697 221.442 73.2697C223.19 73.2697 224.567 72.6517 225.572 71.4157C226.614 70.1423 227.134 68.4569 227.134 66.3595V50.8539H233.497V78.382H227.246V76.1348C225.497 78.0449 223.135 79 220.158 79C217.032 79 214.539 77.9326 212.679 75.7978C210.856 73.6255 209.944 70.6479 209.944 66.8652V50.8539Z" fill="#18181B"/>
<path d="M251.794 67.9888L248.166 67.0899C242.622 65.779 239.85 62.8764 239.85 58.382C239.85 55.9101 240.78 53.9251 242.641 52.427C244.501 50.9288 246.901 50.1798 249.841 50.1798C253.785 50.1798 257.227 51.7154 260.166 54.7865L256.092 59.1685C254.417 56.8464 252.278 55.6854 249.673 55.6854C248.557 55.6854 247.645 55.9476 246.939 56.4719C246.269 56.9588 245.934 57.5581 245.934 58.2697C245.934 59.5431 246.827 60.4045 248.613 60.8539L252.911 61.8652C258.492 63.1386 261.282 66.0037 261.282 70.4607C261.282 73.0075 260.315 75.0674 258.38 76.6404C256.483 78.2135 253.841 79 250.455 79C245.692 79 241.915 77.221 239.125 73.6629L243.143 69.5056C245.152 72.1648 247.757 73.4944 250.957 73.4944C253.748 73.4944 255.143 72.5581 255.143 70.6854C255.143 69.4869 254.027 68.588 251.794 67.9888Z" fill="#18181B"/>
<path d="M274.435 79C271.793 79 269.598 78.2509 267.849 76.7528C266.1 75.2172 265.226 73.176 265.226 70.6292C265.226 67.7079 266.268 65.4419 268.352 63.8315C270.435 62.221 273.189 61.4157 276.612 61.4157C278.323 61.4157 280.165 61.7341 282.137 62.3708V60.5169C282.137 59.1685 281.635 58.0824 280.63 57.2584C279.626 56.397 278.342 55.9663 276.779 55.9663C273.914 55.9663 271.756 57.2959 270.305 59.9551L266.007 55.9101C267.012 54.0749 268.482 52.6704 270.417 51.6966C272.389 50.6854 274.528 50.1798 276.835 50.1798C280.444 50.1798 283.291 51.0787 285.374 52.8764C287.458 54.6742 288.5 57.2397 288.5 60.573V78.382H282.249V76.2472C280.202 78.0824 277.598 79 274.435 79ZM271.589 70.1798C271.589 71.1161 271.942 71.8839 272.649 72.4831C273.393 73.0824 274.417 73.382 275.719 73.382C278.398 73.382 280.537 72.5955 282.137 71.0225V67.8764C280.128 67.1273 278.23 66.7528 276.444 66.7528C274.956 66.7528 273.765 67.0524 272.872 67.6517C272.017 68.2509 271.589 69.0936 271.589 70.1798Z" fill="#18181B"/>
<path d="M77.2749 44.7525L64.3679 37.3267C60.1449 34.8911 54.9702 34.8911 50.7471 37.3267L37.7806 44.7525C33.6171 47.1881 31 51.703 31 56.5148V71.4257C31 76.297 33.6171 80.7525 37.7806 83.1881L50.6877 90.6733C54.9107 93.1089 60.0854 93.1089 64.3084 90.6733L77.2155 83.1881C81.4385 80.7525 83.9961 76.297 83.9961 71.4257V56.5148C84.1151 51.703 81.498 47.1881 77.2749 44.7525ZM57.5278 77.2475C50.2118 77.2475 44.2639 71.3069 44.2639 64C44.2639 56.6931 50.2118 50.7525 57.5278 50.7525C64.8438 50.7525 70.8512 56.6931 70.8512 64C70.8512 71.3069 64.9032 77.2475 57.5278 77.2475Z" fill="#18181B"/>
</svg>
