<svg xmlns="http://www.w3.org/2000/svg" viewBox="0 0 511 511" width="511" height="511"><defs></defs><g transform="matrix(1,0,0,1,110.35,118.262264151)">
<g>
	<g>
		<path d="M-110.35,-118.262264L 401.65,-118.262264 L 401.65,393.737736 L -110.35,393.737736 L -110.35,-118.262264 Z" fill="#ffffff" fill-opacity="0"/>
	</g>
	<g>
		<path d="M21.9,216.037736C21.9,216.037736 21.9,123.937736 21.9,123.937736 Q21.9,106.237736 30,91.537736 Q38.1,76.837736 53.4,68.137736 Q68.7,59.437736 90.3,59.437736 Q100.8,59.437736 111.3,62.287736 Q121.8,65.137736 130.8,71.887736 Q139.8,78.637736 145.2,90.037736 Q145.5,90.037736 145.5,90.037736 Q151.5,78.637736 160.5,71.887736 Q169.5,65.137736 180,62.287736 Q190.5,59.437736 201.3,59.437736 Q222.6,59.437736 237.9,68.137736 Q253.2,76.837736 261.3,91.537736 Q269.4,106.237736 269.4,123.937736 Q269.4,216.037736 269.4,216.037736 C269.4,216.037736 241.8,216.037736 241.8,216.037736 C241.8,216.037736 241.8,123.937736 241.8,123.937736 Q241.8,112.537736 236.4,103.237736 Q231,93.937736 221.85,88.537736 Q212.7,83.137736 201,83.137736 Q189.6,83.137736 180,88.687736 Q170.4,94.237736 164.85,103.387736 Q159.3,112.537736 159.3,123.937736 Q159.3,216.037736 159.3,216.037736 C159.3,216.037736 131.7,216.037736 131.7,216.037736 C131.7,216.037736 131.7,123.937736 131.7,123.937736 Q131.7,112.537736 126.15,103.387736 Q120.6,94.237736 111.15,88.687736 Q101.7,83.137736 90,83.137736 Q78.6,83.137736 69.45,88.537736 Q60.3,93.937736 54.9,103.237736 Q49.5,112.537736 49.5,123.937736 Q49.5,216.037736 49.5,216.037736 C49.5,216.037736 21.9,216.037736 21.9,216.037736 C21.9,216.037736 21.9,216.037736 21.9,216.037736 Z" fill="#000000"/>
	</g>
	<g>
		<path d="M289.2,71.037736Q281.1,71.037736 275.25,65.187736 Q269.4,59.337736 269.4,51.237736 Q269.4,43.137736 275.25,37.287736 Q281.1,31.437736 289.2,31.437736 Q297.3,31.437736 303.15,37.287736 Q309,43.137736 309,51.237736 Q309,56.637736 306.45,61.137736 Q303.9,65.637736 299.4,68.337736 Q294.9,71.037736 289.2,71.037736 Q289.2,71.037736 289.2,71.037736 Z" fill="#e93d82"/>
	</g>
</g></g></svg>